<?xml version="1.0" encoding="utf-8"?>
<!-- Generator: Adobe Illustrator 21.1.0, SVG Export Plug-In . SVG Version: 6.00 Build 0)  -->
<svg version="1.1" id="Capa_1" xmlns="http://www.w3.org/2000/svg" xmlns:xlink="http://www.w3.org/1999/xlink" x="0px" y="0px"
	 viewBox="0 0 510 510" style="enable-background:new 0 0 510 510;" xml:space="preserve">
	<path d="M459,0H51C23,0,0,23,0,51v408c0,28,23,51,51,51h408c28,0,51-23,51-51V51C510,23,487,0,459,0z"/>
	<path fill="currentColor" d="M340.7,65.5H170.4c-57.8,0-104.9,47-104.9,104.9v170.3c0,57.8,47,104.9,104.9,104.9h170.3
		c57.8,0,104.9-47,104.9-104.9V170.4C445.5,112.6,398.5,65.5,340.7,65.5z M411.8,340.7c0,39.2-31.9,71.2-71.2,71.2H170.4
		c-39.2,0-71.1-31.9-71.1-71.2V170.4c0-39.2,31.9-71.2,71.1-71.2h170.3c39.2,0,71.2,31.9,71.2,71.2L411.8,340.7L411.8,340.7z"/>
	<path fill="currentColor" d="M255.5,157.6c-54,0-97.9,43.9-97.9,97.9c0,54,43.9,97.9,97.9,97.9s97.9-43.9,97.9-97.9
		C353.4,201.5,309.5,157.6,255.5,157.6z M255.5,319.7c-35.4,0-64.2-28.8-64.2-64.2c0-35.4,28.8-64.2,64.2-64.2s64.2,28.8,64.2,64.2
		C319.7,290.9,290.9,319.7,255.5,319.7z"/>
	<path fill="currentColor" d="M357.6,129c-6.5,0-12.9,2.6-17.5,7.2c-4.6,4.6-7.3,11-7.3,17.5c0,6.5,2.7,12.9,7.3,17.5
		c4.6,4.6,11,7.2,17.5,7.2c6.5,0,12.9-2.7,17.5-7.2c4.6-4.6,7.2-11,7.2-17.5c0-6.5-2.6-12.9-7.2-17.5
		C370.5,131.7,364.1,129,357.6,129z"/>
</svg>
