<svg width="217" height="49" viewBox="0 0 217 49" fill="none" xmlns="http://www.w3.org/2000/svg">
<path fill-rule="evenodd" clip-rule="evenodd" d="M21.345 2.50488L39.942 12.8689V34.7229L21.345 45.0869L3.21802 36.4199V12.6439L21.345 2.50488Z" fill="white"/>
<path fill-rule="evenodd" clip-rule="evenodd" d="M119.709 16.6211H114.424V34.4721C114.424 34.8401 114.291 35.1001 113.825 35.1001H111.334C110.869 35.1001 110.699 34.9001 110.699 34.4721V16.6211H104.235L105.414 13.3321H120.955L119.709 16.6211ZM215.563 15.5321H215.363V15.9201H215.563C215.66 15.9201 215.774 15.8951 215.774 15.7201C215.774 15.5751 215.678 15.5321 215.563 15.5321ZM216.064 16.6271C216.083 16.6511 216.077 16.6821 216.047 16.6821H215.835C215.805 16.6821 215.78 16.6701 215.769 16.6401C215.69 16.4751 215.617 16.3121 215.533 16.1491H215.363V16.6331C215.363 16.6571 215.352 16.6871 215.315 16.6871H215.146C215.109 16.6871 215.098 16.6701 215.098 16.6331V15.3631C215.098 15.3271 215.115 15.3151 215.158 15.3151H215.605C215.823 15.3151 216.035 15.4301 216.035 15.7201C216.035 15.8711 215.975 16.0341 215.799 16.1071L216.064 16.6271ZM215.545 15.0551C215.029 15.0551 214.61 15.4741 214.61 15.9891C214.61 16.5051 215.029 16.9241 215.545 16.9241C216.059 16.9241 216.477 16.5061 216.477 15.9861C216.477 15.4781 216.059 15.0551 215.545 15.0551ZM215.545 17.1531C214.9 17.1601 214.372 16.6421 214.366 15.9981V15.9861C214.366 15.3391 214.892 14.8251 215.545 14.8251C216.21 14.8251 216.718 15.3391 216.718 15.9861C216.718 16.6451 216.192 17.1531 215.545 17.1531Z" fill="#429DCA"/>
<path fill-rule="evenodd" clip-rule="evenodd" d="M147.264 31.8896H156.643C157.036 31.8896 157.235 32.0226 157.235 32.4456V34.5076C157.235 34.9006 157.072 35.1006 156.613 35.1006H144.217C143.727 35.1006 143.563 34.9006 143.563 34.5076V13.3316H146.647C147.071 13.3316 147.27 13.5316 147.27 13.9906V31.8896H147.264ZM130.472 16.2826C126.735 16.2826 125.556 19.1976 125.556 24.2516C125.556 29.1676 126.542 32.1556 130.472 32.1556C134.475 32.1556 135.618 29.3376 135.618 24.2516C135.624 19.0036 134.475 16.2826 130.472 16.2826ZM130.442 35.3966C122.412 35.3966 121.686 29.0046 121.686 23.9196C121.686 19.9526 122.605 13.0656 130.472 13.0656C138.272 13.0656 139.391 18.6706 139.391 23.9196C139.391 29.0046 138.575 35.3966 130.442 35.3966ZM94.324 16.2826C90.587 16.2826 89.408 19.1976 89.408 24.2516C89.408 29.1676 90.394 32.1556 94.324 32.1556C98.327 32.1556 99.476 29.3376 99.476 24.2516C99.476 19.0036 98.327 16.2826 94.324 16.2826ZM94.294 35.3966C86.264 35.3966 85.538 29.0046 85.538 23.9196C85.538 19.9526 86.457 13.0656 94.324 13.0656C102.131 13.0656 103.243 18.6706 103.243 23.9196C103.249 29.0046 102.427 35.3966 94.294 35.3966Z" fill="#429DCA"/>
<path fill-rule="evenodd" clip-rule="evenodd" d="M178.085 34.5137L171.318 14.0207C171.186 13.5917 171.052 13.3317 170.43 13.3317H166.874L160.023 34.4477C159.86 34.9367 159.993 35.1067 160.386 35.1067H162.95C163.409 35.1067 163.675 34.9437 163.833 34.4167L165.308 29.6887H172.05L170.055 26.6047H166.227L168.924 17.2137H169.057L174.052 34.4227C174.215 34.8827 174.348 35.1127 174.868 35.1127H177.758C178.115 35.1007 178.182 34.8757 178.085 34.5137Z" fill="#429DCA"/>
<path fill-rule="evenodd" clip-rule="evenodd" d="M189.26 31.8828H184.827V16.5128H188.734C191.031 16.5128 192.017 17.7278 192.017 19.4028C192.017 21.0108 190.772 22.2268 189.096 22.2268H185.371L186.612 25.3768H189.26C191.624 25.3768 192.646 26.9188 192.646 28.6598C192.64 30.4078 191.92 31.8828 189.26 31.8828ZM193.299 23.6718L193.269 23.6058C195.404 22.5888 195.893 20.3518 195.893 19.1068C195.893 15.6228 193.661 13.3248 189.296 13.3248H181.121V34.4778C181.121 34.8698 181.284 35.1008 181.846 35.1008H190.185C193.565 35.1008 196.522 32.7658 196.522 28.8898C196.516 27.2508 195.923 24.5608 193.299 23.6718Z" fill="#429DCA"/>
<path fill-rule="evenodd" clip-rule="evenodd" d="M83.3192 34.4111L79.0262 25.7221C81.8802 24.6391 82.9262 22.0511 82.9262 19.7171C82.9262 15.1941 79.6122 13.3251 76.2382 13.3251H68.3052V34.4771C68.3052 34.9001 68.4682 35.1001 68.9582 35.1001H71.3822C71.8422 35.1001 72.0062 34.8401 72.0062 34.4471V16.5721H75.4822C77.3812 16.5721 79.0862 17.2621 79.0862 19.7231C79.0862 22.7101 77.0242 23.2001 75.4162 23.2001H72.5492L73.7652 26.3141H75.3552L79.1892 34.5441C79.3882 35.0031 79.6492 35.1001 80.1382 35.1001H82.9562C83.3192 35.1001 83.4822 34.8091 83.3192 34.4111Z" fill="#429DCA"/>
<path fill-rule="evenodd" clip-rule="evenodd" d="M58.5272 13.332H51.0472V34.478C51.0472 34.9 51.2472 35.101 51.7002 35.101H54.1612C54.6212 35.101 54.7482 34.84 54.7482 34.478V16.542H58.0912C60.3232 16.542 61.7982 17.625 61.7982 19.953C61.7982 21.954 60.8492 23.526 58.2252 23.526H55.2922L56.5262 26.641H58.5212C64.1322 26.641 65.5712 22.867 65.5712 19.856C65.5772 15.496 62.4942 13.332 58.5272 13.332Z" fill="#429DCA"/>
<path fill-rule="evenodd" clip-rule="evenodd" d="M200.005 34.4287C199.255 34.1327 199.255 33.8427 199.352 33.4127L199.648 32.0707C199.781 31.5147 199.975 31.5147 200.53 31.5807C202.23 31.7747 204.817 32.0397 206.323 32.0397C209.106 32.0397 210.514 31.0247 210.514 29.1617C210.514 26.8037 209.565 26.2177 206.62 25.6917C202.756 24.9357 199.321 24.0227 199.321 19.5347C199.321 15.4117 202.133 13.1567 206.753 13.1567C207.998 13.1567 210.877 13.2527 212.776 14.0387C213.495 14.3347 213.495 14.6257 213.429 15.0547L213.102 16.3977C212.969 16.9237 212.776 16.9537 212.152 16.9237C210.677 16.7297 208.845 16.4997 206.916 16.4997C204.135 16.4997 203.155 17.5817 203.155 19.4147C203.155 21.4767 204.201 21.7727 207.049 22.2927C210.811 23.0487 214.281 23.8657 214.281 28.8357C214.281 33.7757 210.52 35.3777 206.329 35.3777C204.685 35.3777 201.71 35.1177 200.005 34.4287Z" fill="#429DCA"/>
<mask id="mask0" mask-type="alpha" maskUnits="userSpaceOnUse" x="0" y="-1" width="43" height="50">
<path fill-rule="evenodd" clip-rule="evenodd" d="M0 -0.000305176H42.6905V48.1447H0V-0.000305176Z" fill="white"/>
</mask>
<g mask="url(#mask0)">
<path fill-rule="evenodd" clip-rule="evenodd" d="M4.72251 33.6387L21.3455 42.7627L37.9685 33.6387V14.5127L21.3455 5.38769L4.72251 14.5127V33.6387ZM21.3455 48.1447L-0.000488281 36.4317V11.7127L21.3455 -0.000305176L42.6905 11.7187V36.4317L21.3455 48.1447Z" fill="#429DCA"/>
</g>
<path fill-rule="evenodd" clip-rule="evenodd" d="M32.913 15.0566L9.77795 27.7366V33.0876L32.913 20.4026V15.0566Z" fill="#429DCA"/>
<path fill-rule="evenodd" clip-rule="evenodd" d="M9.77771 18.0615V23.4075L21.3447 17.0645V11.7245L9.77771 18.0615Z" fill="#85BD41"/>
<path fill-rule="evenodd" clip-rule="evenodd" d="M32.9128 30.083V24.737L21.3448 31.081V36.42L32.9128 30.083Z" fill="#343842"/>
</svg>
