<svg id="Layer_1" data-name="Layer 1" xmlns="http://www.w3.org/2000/svg" viewBox="0 0 358.39 79.64">
  <defs>
    <style>
      .cls-1 {
        fill: #343842;
      }

      .cls-2 {
        fill: #429dca;
      }

      .cls-3 {
        fill: #85bd41;
      }
    </style>
  </defs>
  <title>Protolabs-horizontal-logo-tagline-RGB</title>
  <g>
    <g>
      <g>
        <g>
          <g>
            <path class="cls-1" d="M100.9,77.12V64.63L95.43,77.12h-2L88,64.63V77.12h-2.2v-16h3l5.65,13.05,5.7-13.05h3v16Z" transform="translate(-1.34 -1.3)"/>
            <path class="cls-1" d="M119.86,77.12h-2.13V66.24h2.08V67.8a3.72,3.72,0,0,1,3.35-1.88c2.6,0,3.89,1.88,3.89,4.3v6.9h-2.13V70.58c0-1.51-.63-2.73-2.53-2.73-1.67,0-2.53,1.33-2.53,3Z" transform="translate(-1.34 -1.3)"/>
            <path class="cls-1" d="M145,68.16v9h-2.19v-9h-2V66.24h2V64.41a3.45,3.45,0,0,1,3.57-3.73,2.74,2.74,0,0,1,1.27.23v1.9a2.49,2.49,0,0,0-.93-.14A1.63,1.63,0,0,0,145,64.52v1.72h2.62v1.92Z" transform="translate(-1.34 -1.3)"/>
            <path class="cls-1" d="M174.82,66.24h2.35v1.92h-2.35v5.65c0,1,.41,1.49,1.52,1.49a4.38,4.38,0,0,0,.84-.09V77a4.58,4.58,0,0,1-1.45.2,2.83,2.83,0,0,1-3-3.1v-6h-2.08V66.24h2.26V62.8l1.94-.72Z" transform="translate(-1.34 -1.3)"/>
            <path class="cls-1" d="M183.5,77.46c-2.53,0-4.07-1.9-4.07-4.37V66.24h2.13v6.54c0,1.49.68,2.8,2.47,2.8s2.58-1.13,2.58-2.78V66.24h2.13V77.12h-2V75.81A3.55,3.55,0,0,1,183.5,77.46Z" transform="translate(-1.34 -1.3)"/>
            <path class="cls-1" d="M133.78,77.46c-2.53,0-4.07-1.9-4.07-4.37V66.24h2.13v6.54c0,1.49.68,2.8,2.47,2.8s2.58-1.13,2.58-2.78V66.24H139V77.12h-2V75.81A3.55,3.55,0,0,1,133.78,77.46Z" transform="translate(-1.34 -1.3)"/>
            <path class="cls-1" d="M197.92,68.39a6.37,6.37,0,0,0-.93-.07c-1.79,0-3,.95-3,3.35v5.45h-2.13V66.24H194v1.9a3.4,3.4,0,0,1,3.25-2.08,4.1,4.1,0,0,1,.7.07Z" transform="translate(-1.34 -1.3)"/>
            <path class="cls-1" d="M200.77,61.63a1.22,1.22,0,1,1-1.21,1.23A1.22,1.22,0,0,1,200.77,61.63Zm-1,15.49V66.24h2.1V77.12Z" transform="translate(-1.34 -1.3)"/>
            <path class="cls-1" d="M207.12,77.12H205V66.24h2.08V67.8a3.72,3.72,0,0,1,3.35-1.88c2.6,0,3.89,1.88,3.89,4.3v6.9h-2.13V70.58c0-1.51-.63-2.73-2.53-2.73-1.67,0-2.53,1.33-2.53,3Z" transform="translate(-1.34 -1.3)"/>
            <path class="cls-1" d="M229.54,74.6a1.26,1.26,0,0,1,1.27,1.27,1.24,1.24,0,0,1-1.27,1.25,1.23,1.23,0,0,1-1.25-1.25A1.24,1.24,0,0,1,229.54,74.6Z" transform="translate(-1.34 -1.3)"/>
            <path class="cls-1" d="M249.13,72.64H242l-1.7,4.48H238l6.38-16h2.56l6.38,16h-2.4Zm-6.31-2.06h5.52l-2.78-7.19Z" transform="translate(-1.34 -1.3)"/>
            <path class="cls-1" d="M289.25,77.12V60.74h2.13V77.12Z" transform="translate(-1.34 -1.3)"/>
            <path class="cls-1" d="M304,74a4.93,4.93,0,0,1-4.89,3.44,5.8,5.8,0,0,1-.27-11.56c3.35,0,5.22,2.31,5.22,5.7a4.88,4.88,0,0,1,0,.68h-8.19a3.23,3.23,0,0,0,3.28,3.3,3,3,0,0,0,3.05-2.19Zm-2.15-3.46a2.74,2.74,0,0,0-3-2.78,2.93,2.93,0,0,0-3,2.78Z" transform="translate(-1.34 -1.3)"/>
            <path class="cls-1" d="M286.86,74A4.93,4.93,0,0,1,282,77.46a5.8,5.8,0,0,1-.27-11.56c3.35,0,5.22,2.31,5.22,5.7a4.88,4.88,0,0,1,0,.68h-8.19a3.23,3.23,0,0,0,3.28,3.3A3,3,0,0,0,285,73.39Zm-2.15-3.46a2.74,2.74,0,0,0-3-2.78,2.93,2.93,0,0,0-3,2.78Z" transform="translate(-1.34 -1.3)"/>
            <path class="cls-1" d="M312.38,68.39a6.37,6.37,0,0,0-.93-.07c-1.79,0-3,.95-3,3.35v5.45h-2.13V66.24h2.08v1.9a3.4,3.4,0,0,1,3.25-2.08,4.1,4.1,0,0,1,.7.07Z" transform="translate(-1.34 -1.3)"/>
            <path class="cls-1" d="M342.49,74a4.93,4.93,0,0,1-4.89,3.44,5.8,5.8,0,0,1-.27-11.56c3.35,0,5.22,2.31,5.22,5.7a4.88,4.88,0,0,1,0,.68h-8.19a3.23,3.23,0,0,0,3.28,3.3,3,3,0,0,0,3.05-2.19Zm-2.15-3.46a2.74,2.74,0,0,0-3-2.78,2.93,2.93,0,0,0-3,2.78Z" transform="translate(-1.34 -1.3)"/>
            <path class="cls-1" d="M352.44,75.47a3.64,3.64,0,0,1-3.37,1.95c-3.19,0-5.16-2.53-5.16-5.77,0-3.08,2.08-5.7,5.16-5.7a3.34,3.34,0,0,1,3.32,1.83v-7h2.09V77.12h-2V75.47Zm-3.17.07c1.94,0,3.14-1.7,3.14-3.94s-1.17-3.78-3.12-3.78-3.21,1.58-3.21,3.82S347.23,75.54,349.27,75.54Z" transform="translate(-1.34 -1.3)"/>
            <path class="cls-1" d="M357.09,74.6a1.26,1.26,0,0,1,1.27,1.27,1.24,1.24,0,0,1-1.27,1.25,1.23,1.23,0,0,1-1.25-1.25A1.24,1.24,0,0,1,357.09,74.6Z" transform="translate(-1.34 -1.3)"/>
          </g>
          <path class="cls-1" d="M328.4,66.24h2.35v1.92H328.4v5.65c0,1,.41,1.49,1.52,1.49a4.38,4.38,0,0,0,.84-.09V77a4.58,4.58,0,0,1-1.45.2,2.83,2.83,0,0,1-3-3.1v-6h-2.08V66.24h2.26V62.8l1.94-.72Z" transform="translate(-1.34 -1.3)"/>
          <path class="cls-1" d="M224.82,66.24v1.52A3.43,3.43,0,0,0,221.48,66a5.29,5.29,0,0,0,0,10.56A3.64,3.64,0,0,0,224.68,75c0,.08,0,.18,0,.26V76c0,2-1.12,3.07-3.17,3.07A6.55,6.55,0,0,1,217.93,78l-.85,1.72a8.61,8.61,0,0,0,4.47,1.19,5.62,5.62,0,0,0,4.11-1.35,5.12,5.12,0,0,0,1.27-3.77V66.24Zm-3,8.57c-1.92,0-3.14-1.36-3.14-3.48s1.27-3.48,3.14-3.48,3.1,1.38,3.1,3.48S223.62,74.81,221.79,74.81Z" transform="translate(-1.34 -1.3)"/>
          <g>
            <path class="cls-1" d="M110.37,65.9a4.24,4.24,0,0,0-4.28,3l2,.5a2.25,2.25,0,0,1,2.33-1.68c1.65,0,2.35.88,2.35,1.94,0,.38-.18.73-.84.81L109,70.9c-1.88.27-3.3,1.36-3.3,3.3a3.39,3.39,0,0,0,3.64,3.26,4,4,0,0,0,3.51-1.81v1.47h2.06V69.88C114.89,67.76,113.62,65.9,110.37,65.9Zm2.4,6.56c0,2.37-1.4,3.21-3.14,3.21a1.65,1.65,0,0,1-1.77-1.58,1.63,1.63,0,0,1,1.58-1.63l3.32-.5Z" transform="translate(-1.34 -1.3)"/>
            <path class="cls-1" d="M153.09,65.9a4.24,4.24,0,0,0-4.28,3l2,.5a2.25,2.25,0,0,1,2.33-1.68c1.65,0,2.35.88,2.35,1.94,0,.38-.18.73-.84.81l-2.94.43c-1.88.27-3.3,1.36-3.3,3.3A3.39,3.39,0,0,0,152,77.46a4,4,0,0,0,3.51-1.81v1.47h2.06V69.88C157.62,67.76,156.35,65.9,153.09,65.9Zm2.4,6.56c0,2.37-1.4,3.21-3.14,3.21a1.65,1.65,0,0,1-1.77-1.58,1.63,1.63,0,0,1,1.58-1.63l3.32-.5Z" transform="translate(-1.34 -1.3)"/>
            <path class="cls-1" d="M318.25,65.9a4.24,4.24,0,0,0-4.28,3l2,.5a2.25,2.25,0,0,1,2.33-1.68c1.65,0,2.35.88,2.35,1.94,0,.38-.18.73-.84.81l-2.94.43c-1.88.27-3.3,1.36-3.3,3.3a3.39,3.39,0,0,0,3.64,3.26,4,4,0,0,0,3.51-1.81v1.47h2.06V69.88C322.78,67.76,321.51,65.9,318.25,65.9Zm2.4,6.56c0,2.37-1.4,3.21-3.14,3.21a1.65,1.65,0,0,1-1.77-1.58,1.63,1.63,0,0,1,1.58-1.63l3.32-.5Z" transform="translate(-1.34 -1.3)"/>
          </g>
          <path class="cls-1" d="M165,75.49c-1.77,0-3.33-1.34-3.33-3.82s1.58-3.8,3.3-3.8a2.79,2.79,0,0,1,2.83,2.08l1.9-.83A4.7,4.7,0,0,0,165,65.9a5.79,5.79,0,0,0,0,11.56,5,5,0,0,0,4.8-3.18L168,73.47A2.9,2.9,0,0,1,165,75.49Z" transform="translate(-1.34 -1.3)"/>
          <path class="cls-1" d="M259.26,75.49c-1.77,0-3.33-1.34-3.33-3.82s1.58-3.8,3.3-3.8a2.79,2.79,0,0,1,2.83,2.08l1.9-.83a4.7,4.7,0,0,0-4.73-3.21,5.79,5.79,0,0,0,0,11.56,5,5,0,0,0,4.8-3.18l-1.86-.81A2.9,2.9,0,0,1,259.26,75.49Z" transform="translate(-1.34 -1.3)"/>
          <path class="cls-1" d="M270.61,75.49c-1.77,0-3.33-1.34-3.33-3.82s1.58-3.8,3.3-3.8a2.79,2.79,0,0,1,2.83,2.08l1.9-.83a4.7,4.7,0,0,0-4.73-3.21,5.79,5.79,0,0,0,0,11.56,5,5,0,0,0,4.8-3.18l-1.86-.81A2.9,2.9,0,0,1,270.61,75.49Z" transform="translate(-1.34 -1.3)"/>
        </g>
        <path class="cls-2" d="M357.8,20.05a1.93,1.93,0,1,1,0-3.85,1.9,1.9,0,0,1,1.94,1.92A1.92,1.92,0,0,1,357.8,20.05Zm0-3.47a1.54,1.54,0,1,0,1.54,1.54A1.55,1.55,0,0,0,357.8,16.58Zm.87,2.6s0,.08,0,.08h-.35a.11.11,0,0,1-.11-.07c-.13-.27-.25-.54-.39-.81h-.28v.8a.07.07,0,0,1-.08.08h-.28c-.06,0-.08,0-.08-.08v-2.1c0-.06,0-.08.1-.08h.74a.69.69,0,0,1,.32,1.32Zm-.83-1.81h-.33V18h.33c.16,0,.35,0,.35-.33S358,17.37,357.83,17.37Z" transform="translate(-1.34 -1.3)"/>
        <path class="cls-2" d="M199.31,19.17h-8.74V48.69c0,.61-.22,1-1,1h-4.12c-.77,0-1-.33-1-1V19.17H173.71l1.95-5.44h25.7Z" transform="translate(-1.34 -1.3)"/>
        <g>
          <path class="cls-2" d="M157.28,50.22c-13.28,0-14.48-10.57-14.48-19,0-6.56,1.52-17.95,14.53-17.95s14.75,9.27,14.75,17.95C172.09,39.65,170.73,50.22,157.28,50.22Zm.05-31.61c-6.18,0-8.13,4.82-8.13,13.18,0,8.13,1.63,13.07,8.13,13.07s8.52-4.66,8.52-13.07C165.85,23.11,164,18.61,157.33,18.61Z" transform="translate(-1.34 -1.3)"/>
          <path class="cls-2" d="M217.06,50.22c-13.28,0-14.48-10.57-14.48-19,0-6.56,1.52-17.95,14.53-17.95s14.75,9.27,14.75,17.95C231.86,39.65,230.51,50.22,217.06,50.22Zm.06-31.61c-6.18,0-8.13,4.82-8.13,13.18,0,8.13,1.63,13.07,8.13,13.07s8.51-4.66,8.51-13.07C225.63,23.11,223.73,18.61,217.11,18.61Z" transform="translate(-1.34 -1.3)"/>
          <path class="cls-2" d="M244.88,44.42h15.51c.65,0,1,.22,1,.92v3.41c0,.65-.27,1-1,1h-20.5c-.81,0-1.08-.33-1.08-1v-35h5.1c.7,0,1,.33,1,1.09Z" transform="translate(-1.34 -1.3)"/>
        </g>
        <path class="cls-2" d="M295.85,48.76,284.66,14.86c-.22-.71-.44-1.14-1.47-1.14h-5.88L266,48.65c-.27.81-.05,1.09.6,1.09h4.24a1.35,1.35,0,0,0,1.46-1.14l2.44-7.82h11.15l-3.3-5.1h-6.33l4.46-15.53h.22l8.26,28.46c.27.76.49,1.14,1.35,1.14h4.78C295.9,49.73,296,49.36,295.85,48.76Z" transform="translate(-1.34 -1.3)"/>
        <path class="cls-2" d="M321,30.83l-.05-.11c3.53-1.68,4.34-5.38,4.34-7.44,0-5.76-3.69-9.56-10.91-9.56H300.86v35c0,.65.27,1,1.2,1h13.79c5.59,0,10.48-3.86,10.48-10.27C326.33,36.75,325.35,32.3,321,30.83Zm-6.68,13.58H307V19h6.46c3.8,0,5.43,2,5.43,4.78a4.64,4.64,0,0,1-4.83,4.67h-6.16l2.05,5.21h4.38c3.91,0,5.6,2.55,5.6,5.43S318.73,44.41,314.33,44.41Z" transform="translate(-1.34 -1.3)"/>
        <path class="cls-2" d="M139.13,48.59,132,34.23c4.72-1.79,6.45-6.07,6.45-9.93,0-7.48-5.48-10.57-11.06-10.57H114.3v35c0,.7.27,1,1.08,1h4c.76,0,1-.43,1-1.08V19.09h5.75c3.14,0,6,1.14,6,5.21,0,4.94-3.41,5.75-6.07,5.75h-4.74l2,5.15H126l6.34,13.61c.33.76.76.92,1.57.92h4.66C139.13,49.73,139.4,49.25,139.13,48.59Z" transform="translate(-1.34 -1.3)"/>
        <path class="cls-2" d="M98.13,13.73H85.76v35c0,.7.33,1,1.08,1h4.07c.76,0,1-.43,1-1V19h5.53c3.69,0,6.13,1.79,6.13,5.64,0,3.31-1.57,5.91-5.91,5.91H92.79l2,5.15h3.3c9.28,0,11.66-6.24,11.66-11.22C109.79,17.31,104.69,13.73,98.13,13.73Z" transform="translate(-1.34 -1.3)"/>
        <path class="cls-2" d="M332.1,48.62c-1.24-.49-1.24-1-1.08-1.68l.49-2.22c.22-.92.54-.92,1.46-.81,2.81.32,7.09.76,9.58.76,4.6,0,6.93-1.68,6.93-4.76,0-3.9-1.57-4.87-6.44-5.74C336.65,32.92,331,31.41,331,24c0-6.82,4.65-10.55,12.29-10.55,2.06,0,6.82.16,10,1.46,1.19.49,1.19,1,1.08,1.68l-.54,2.22c-.22.87-.54.92-1.57.87a65.17,65.17,0,0,0-8.66-.7c-4.6,0-6.22,1.79-6.22,4.82,0,3.41,1.73,3.9,6.44,4.76,6.22,1.25,12,2.6,12,10.82s-6.22,10.82-13.15,10.82C339.84,50.19,334.92,49.76,332.1,48.62Z" transform="translate(-1.34 -1.3)"/>
      </g>
      <g>
        <path class="cls-2" d="M36.64,80.92,1.34,61.55V20.67L36.64,1.3l35.3,19.38V61.55Zm-27.49-24L36.64,72,64.13,56.93V25.3L36.64,10.21,9.15,25.3Z" transform="translate(-1.34 -1.3)"/>
        <g>
          <polygon class="cls-3" points="35.3 28.23 35.3 19.33 16.17 29.83 16.17 38.74 35.3 28.23"/>
          <polygon class="cls-1" points="54.43 49.8 54.43 40.89 35.3 51.39 35.3 60.3 54.43 49.8"/>
          <polygon class="cls-2" points="54.42 24.86 16.17 45.86 16.17 54.77 54.42 33.77 54.42 24.86"/>
        </g>
      </g>
    </g>
    <path class="cls-1" d="M358.1,63.86a1.56,1.56,0,1,1,0-3.12,1.54,1.54,0,0,1,1.57,1.56A1.56,1.56,0,0,1,358.1,63.86Zm0-2.81a1.25,1.25,0,1,0,1.25,1.25A1.25,1.25,0,0,0,358.1,61Zm.7,2.1s0,.07,0,.07h-.28a.09.09,0,0,1-.09-.06c-.1-.22-.2-.43-.31-.66h-.23v.65a.06.06,0,0,1-.06.07h-.22s-.06,0-.06-.07v-1.7s0-.06.08-.06h.6a.56.56,0,0,1,.26,1.07Zm-.67-1.47h-.27v.52h.27c.13,0,.28,0,.28-.27S358.28,61.69,358.12,61.69Z" transform="translate(-1.34 -1.3)"/>
  </g>
</svg>
