<svg width="208" height="46" viewBox="0 0 208 46" fill="none" xmlns="http://www.w3.org/2000/svg">
<path fill-rule="evenodd" clip-rule="evenodd" d="M206.698 35.2792V34.6782L206.438 35.2792H206.288L206.034 34.6842V35.2792H205.838V34.3382H206.092L206.369 34.9962L206.646 34.3382H206.889V35.2792H206.698ZM205.382 34.5112V35.2792H205.185V34.5112H204.896V34.3382H205.671V34.5112H205.382ZM205.479 42.3382C205.889 42.3382 206.214 42.6612 206.214 43.0712C206.214 43.4812 205.889 43.7932 205.479 43.7932C205.069 43.7932 204.758 43.4812 204.758 43.0712C204.758 42.6612 205.069 42.3382 205.479 42.3382ZM200.963 42.8812C202.084 42.8812 202.776 41.8982 202.776 40.6052C202.776 39.3112 202.1 38.4222 200.974 38.4222C199.848 38.4222 199.12 39.3342 199.12 40.6282C199.12 41.9222 199.785 42.8812 200.963 42.8812ZM202.794 42.8402C202.494 43.4412 201.829 43.9672 200.847 43.9672C199.005 43.9672 197.867 42.5052 197.867 40.6332C197.867 38.8542 199.068 37.3422 200.847 37.3422C201.957 37.3422 202.557 37.8902 202.765 38.3982V34.3382H203.972V43.7932H202.794V42.8402ZM195.804 40.0042C195.782 39.1032 195.193 38.3982 194.084 38.3982C193.05 38.3982 192.426 39.1952 192.374 40.0042H195.804ZM197.047 42.0032C196.694 43.1112 195.689 43.9892 194.222 43.9892C192.536 43.9892 191.057 42.7592 191.057 40.6282C191.057 38.6522 192.484 37.3122 194.06 37.3122C195.996 37.3122 197.076 38.6462 197.076 40.6052C197.076 40.7602 197.064 40.9172 197.052 40.9982H192.322C192.345 42.1242 193.16 42.9042 194.217 42.9042C195.233 42.9042 195.747 42.3432 195.978 41.6382L197.047 42.0032ZM179.656 38.7512C179.47 38.7212 179.291 38.7112 179.118 38.7112C178.084 38.7112 177.391 39.2582 177.391 40.6452V43.7932H176.161V37.5082H177.363V38.6062C177.819 37.6412 178.604 37.4052 179.24 37.4052C179.413 37.4052 179.58 37.4282 179.644 37.4452V38.7512H179.656ZM163.673 40.0042C163.65 39.1032 163.061 38.3982 161.952 38.3982C160.918 38.3982 160.294 39.1952 160.242 40.0042H163.673ZM164.915 42.0032C164.563 43.1112 163.558 43.9892 162.091 43.9892C160.404 43.9892 158.926 42.7592 158.926 40.6282C158.926 38.6522 160.352 37.3122 161.929 37.3122C163.864 37.3122 164.944 38.6462 164.944 40.6052C164.944 40.7602 164.932 40.9172 164.921 40.9982H160.19C160.214 42.1242 161.028 42.9042 162.085 42.9042C163.101 42.9042 163.615 42.3432 163.846 41.6382L164.915 42.0032ZM173.579 40.0042C173.556 39.1032 172.967 38.3982 171.858 38.3982C170.824 38.3982 170.2 39.1952 170.148 40.0042H173.579ZM174.827 42.0032C174.474 43.1112 173.469 43.9892 172.002 43.9892C170.316 43.9892 168.837 42.7592 168.837 40.6282C168.837 38.6522 170.263 37.3122 171.841 37.3122C173.776 37.3122 174.856 38.6462 174.856 40.6052C174.856 40.7602 174.844 40.9172 174.832 40.9982H170.102C170.125 42.1242 170.939 42.9042 171.996 42.9042C173.013 42.9042 173.527 42.3432 173.758 41.6382L174.826 42.0032H174.827ZM166.296 43.7932V34.3322H167.526V43.7872H166.296V43.7932ZM139.472 40.0152H142.66L141.055 35.8632L139.472 40.0152ZM143.122 41.2062H139.022L138.04 43.7932H136.671L140.356 34.5282H141.834L145.519 43.7932H144.133L143.122 41.2062ZM131.807 42.3382C132.218 42.3382 132.541 42.6612 132.541 43.0712C132.541 43.4812 132.218 43.7932 131.807 43.7932C131.397 43.7932 131.085 43.4812 131.085 43.0712C131.085 42.6612 131.397 42.3382 131.807 42.3382ZM118.858 43.7932H117.628V37.5082H118.829V38.4102C119.285 37.6252 120.03 37.3242 120.764 37.3242C122.265 37.3242 123.01 38.4102 123.01 39.8072V43.7932H121.781V40.0152C121.781 39.1432 121.416 38.4392 120.319 38.4392C119.354 38.4392 118.858 39.2072 118.858 40.1602V43.7932ZM114.589 43.7922H115.802V37.5082H114.589V43.7922ZM115.19 34.8462C115.589 34.8462 115.901 35.1642 115.901 35.5562C115.901 35.9432 115.589 36.2562 115.19 36.2562C114.803 36.2562 114.491 35.9432 114.491 35.5562C114.491 35.1582 114.803 34.8462 115.19 34.8462ZM113.544 38.7512C113.359 38.7212 113.18 38.7112 113.007 38.7112C111.973 38.7112 111.28 39.2582 111.28 40.6452V43.7932H110.05V37.5082H111.251V38.6062C111.707 37.6412 112.492 37.4052 113.128 37.4052C113.302 37.4052 113.469 37.4282 113.532 37.4452V38.7512H113.544ZM76.4967 43.9892C75.0347 43.9892 74.1457 42.8922 74.1457 41.4662V37.5082H75.3757V41.2862C75.3757 42.1472 75.7687 42.9042 76.8027 42.9042C77.7967 42.9042 78.2927 42.2512 78.2927 41.2982V37.5082H79.5117V43.7932H78.3447V43.0372C78.0097 43.6892 77.2247 43.9892 76.4967 43.9892ZM105.215 43.9892C103.754 43.9892 102.864 42.8922 102.864 41.4662V37.5082H104.094V41.2862C104.094 42.1472 104.487 42.9042 105.521 42.9042C106.514 42.9042 107.011 42.2512 107.011 41.2982V37.5082H108.241V43.7932H107.075V43.0372C106.728 43.6892 105.943 43.9892 105.215 43.9892ZM100.201 37.5082H101.559V38.6182H100.201V41.8822C100.201 42.4532 100.438 42.7422 101.079 42.7422C101.242 42.7422 101.405 42.7242 101.565 42.6902V43.7352C101.461 43.7762 101.149 43.8562 100.727 43.8562C99.6577 43.8562 98.9767 43.2042 98.9767 42.0662V38.6182H97.7757V37.5082H99.0807V35.5222L100.201 35.1062V37.5082ZM82.9477 38.6182V43.7932H81.6837V38.6182H80.5167V37.5082H81.6837V36.4522C81.6837 35.0542 82.6137 34.2982 83.7457 34.2982C84.1607 34.2982 84.4267 34.3892 84.4787 34.4302V35.5282C84.4157 35.5052 84.2597 35.4472 83.9417 35.4472C83.5147 35.4472 82.9477 35.6552 82.9477 36.5152V37.5082H84.4617V38.6182H82.9477ZM68.4567 43.7932H67.2257V37.5082H68.4277V38.4102C68.8837 37.6252 69.6287 37.3242 70.3627 37.3242C71.8647 37.3242 72.6097 38.4102 72.6097 39.8072V43.7932H71.3797V40.0152C71.3797 39.1432 71.0147 38.4392 69.9177 38.4392C68.9527 38.4392 68.4567 39.2072 68.4567 40.1602V43.7932ZM57.5057 43.7932V36.5792L54.3457 43.7932H53.1677L50.0307 36.5792V43.7932H48.7607V34.5282H50.4987L53.7627 42.0662L57.0547 34.5282H58.7647V43.7932H57.5057Z" fill="#343842"/>
<path fill-rule="evenodd" clip-rule="evenodd" d="M127.331 42.4589C126.222 42.4589 125.517 41.6739 125.517 40.4489C125.517 39.2359 126.25 38.4389 127.331 38.4389C128.388 38.4389 129.122 39.2359 129.122 40.4489C129.122 41.6619 128.388 42.4589 127.331 42.4589ZM129.081 37.5089V38.3869C128.769 37.7639 128.116 37.3939 127.146 37.3939C125.419 37.3939 124.258 38.7509 124.258 40.4489C124.258 42.2229 125.471 43.4929 127.146 43.4929C128.03 43.4929 128.671 43.0829 129 42.5519L128.983 42.7019V43.1519C128.983 44.3129 128.336 44.9259 127.152 44.9259C126.366 44.9259 125.719 44.6939 125.096 44.3129L124.604 45.3069C125.35 45.7569 126.233 45.9939 127.186 45.9939C128.226 45.9939 129.035 45.7399 129.56 45.2139C130.039 44.7339 130.294 44.0069 130.294 43.0369V37.4969H129.081V37.5089ZM188.908 37.5089H190.265V38.6179H188.908V41.8819C188.908 42.4529 189.145 42.7419 189.786 42.7419C189.95 42.7419 190.112 42.7249 190.271 42.6899V43.7349C190.167 43.7759 189.855 43.8559 189.434 43.8559C188.365 43.8559 187.684 43.2039 187.684 42.0659V38.6179H186.482V37.5089H187.788V35.5219L188.908 35.1059V37.5089Z" fill="#343842"/>
<path fill-rule="evenodd" clip-rule="evenodd" d="M184.432 41.1015C184.432 42.4705 183.623 42.9555 182.618 42.9555C181.989 42.9555 181.596 42.5105 181.596 42.0425C181.596 41.4835 181.989 41.1825 182.508 41.1015L184.426 40.8125V41.1015H184.432ZM183.045 37.3125C181.815 37.3125 180.85 38.0175 180.574 39.0395L181.728 39.3285C181.896 38.7625 182.335 38.3585 183.075 38.3585C184.028 38.3585 184.432 38.8665 184.432 39.4785C184.432 39.6985 184.328 39.9005 183.947 39.9465L182.248 40.1955C181.162 40.3505 180.342 40.9805 180.342 42.1005C180.342 43.0945 181.162 43.9845 182.445 43.9845C183.571 43.9845 184.195 43.3825 184.472 42.9385V43.7875H185.662V39.6055C185.662 38.3865 184.928 37.3125 183.045 37.3125ZM89.0361 41.1015C89.0361 42.4705 88.2271 42.9555 87.2231 42.9555C86.5931 42.9555 86.2001 42.5105 86.2001 42.0425C86.2001 41.4835 86.5931 41.1825 87.1131 41.1015L89.0301 40.8125V41.1015H89.0361ZM87.6501 37.3125C86.4201 37.3125 85.4551 38.0175 85.1781 39.0395L86.3331 39.3285C86.5001 38.7625 86.9391 38.3585 87.6791 38.3585C88.6321 38.3585 89.0361 38.8665 89.0361 39.4785C89.0361 39.6985 88.9321 39.9005 88.5511 39.9465L86.8531 40.1955C85.7671 40.3505 84.9471 40.9805 84.9471 42.1005C84.9471 43.0945 85.7671 43.9845 87.0491 43.9845C88.1761 43.9845 88.7991 43.3825 89.0771 42.9385V43.7875H90.2661V39.6055C90.2661 38.3865 89.5331 37.3125 87.6501 37.3125ZM64.3551 41.1015C64.3551 42.4705 63.5471 42.9555 62.5421 42.9555C61.9121 42.9555 61.5191 42.5105 61.5191 42.0425C61.5191 41.4835 61.9121 41.1825 62.4321 41.1015L64.3501 40.8125V41.1015H64.3551ZM62.9751 37.3125C61.7451 37.3125 60.7801 38.0175 60.5031 39.0395L61.6581 39.3285C61.8261 38.7625 62.2651 38.3585 63.0041 38.3585C63.9571 38.3585 64.3611 38.8665 64.3611 39.4785C64.3611 39.6985 64.2571 39.9005 63.8761 39.9465L62.1781 40.1955C61.0921 40.3505 60.2721 40.9805 60.2721 42.1005C60.2721 43.0945 61.0921 43.9845 62.3741 43.9845C63.5011 43.9845 64.1241 43.3825 64.4021 42.9385V43.7875H65.5921V39.6055C65.5861 38.3865 64.8521 37.3125 62.9751 37.3125Z" fill="#343842"/>
<path fill-rule="evenodd" clip-rule="evenodd" d="M155.529 42.8515C154.507 42.8515 153.606 42.0785 153.606 40.6455C153.606 39.1785 154.518 38.4505 155.512 38.4505C156.511 38.4505 156.962 39.0685 157.146 39.6525L158.244 39.1725C157.938 38.2595 157.1 37.3185 155.512 37.3185C153.721 37.3185 152.352 38.6875 152.352 40.6515C152.352 42.5575 153.698 43.9955 155.529 43.9955C157.089 43.9955 157.961 43.0315 158.301 42.1595L157.227 41.6905C157.054 42.1755 156.615 42.8515 155.529 42.8515ZM148.973 42.8515C147.951 42.8515 147.05 42.0785 147.05 40.6455C147.05 39.1785 147.963 38.4505 148.956 38.4505C149.955 38.4505 150.406 39.0685 150.591 39.6525L151.688 39.1725C151.382 38.2595 150.545 37.3185 148.956 37.3185C147.166 37.3185 145.797 38.6875 145.797 40.6515C145.797 42.5575 147.142 43.9955 148.973 43.9955C150.533 43.9955 151.405 43.0315 151.746 42.1595L150.672 41.6905C150.498 42.1755 150.059 42.8515 148.973 42.8515ZM94.5469 42.8515C93.5249 42.8515 92.6229 42.0785 92.6229 40.6455C92.6229 39.1785 93.5359 38.4505 94.5289 38.4505C95.5289 38.4505 95.9789 39.0685 96.1639 39.6525L97.2609 39.1725C96.9549 38.2595 96.1179 37.3185 94.5289 37.3185C92.7389 37.3185 91.3699 38.6875 91.3699 40.6515C91.3699 42.5575 92.7159 43.9955 94.5469 43.9955C96.1059 43.9955 96.9779 43.0315 97.3189 42.1595L96.2449 41.6905C96.0709 42.1755 95.6329 42.8515 94.5469 42.8515Z" fill="#343842"/>
<mask id="mask0" mask-type="alpha" maskUnits="userSpaceOnUse" x="99" y="7" width="109" height="21">
<path fill-rule="evenodd" clip-rule="evenodd" d="M99.5657 7.1792H207.01V27.9722H99.5657V7.1792Z" fill="white"/>
</mask>
<g mask="url(#mask0)">
<path fill-rule="evenodd" clip-rule="evenodd" d="M114.347 10.3212H109.299V27.3722C109.299 27.7242 109.172 27.9722 108.727 27.9722H106.347C105.902 27.9722 105.741 27.7822 105.741 27.3722V10.3212H99.5657L100.692 7.1792H115.536L114.347 10.3212ZM205.907 9.2822H205.717V9.6512H205.907C206 9.6512 206.109 9.6292 206.109 9.4612C206.109 9.3222 206.016 9.2822 205.907 9.2822ZM206.387 10.3272C206.404 10.3502 206.398 10.3802 206.369 10.3802H206.167C206.139 10.3802 206.115 10.3682 206.103 10.3392C206.028 10.1822 205.959 10.0272 205.878 9.8712H205.717V10.3332C205.717 10.3562 205.705 10.3842 205.671 10.3842H205.509C205.473 10.3842 205.463 10.3682 205.463 10.3332V9.1202C205.463 9.0862 205.479 9.0742 205.52 9.0742H205.947C206.155 9.0742 206.357 9.1832 206.357 9.4612C206.357 9.6052 206.3 9.7612 206.133 9.8312L206.387 10.3272ZM205.889 8.8262C205.397 8.8262 204.998 9.2252 204.998 9.7172C204.998 10.2112 205.397 10.6102 205.889 10.6102C206.381 10.6102 206.779 10.2122 206.779 9.7152C206.779 9.2302 206.381 8.8262 205.889 8.8262ZM205.889 10.8302C205.274 10.8362 204.77 10.3422 204.764 9.7262V9.7152C204.764 9.0972 205.266 8.6062 205.889 8.6062C206.525 8.6062 207.011 9.0972 207.011 9.7152C207.011 10.3442 206.508 10.8302 205.889 10.8302Z" fill="#429DCA"/>
</g>
<path fill-rule="evenodd" clip-rule="evenodd" d="M140.667 24.9062H149.625C150.001 24.9062 150.191 25.0332 150.191 25.4372V27.4072C150.191 27.7822 150.036 27.9722 149.597 27.9722H137.756C137.288 27.9722 137.132 27.7822 137.132 27.4072V7.1792H140.078C140.482 7.1792 140.673 7.3702 140.673 7.8092V24.9062H140.667ZM124.627 9.9982C121.058 9.9982 119.931 12.7822 119.931 17.6112C119.931 22.3062 120.873 25.1602 124.627 25.1602C128.451 25.1602 129.542 22.4682 129.542 17.6112C129.548 12.5972 128.451 9.9982 124.627 9.9982ZM124.598 28.2562C116.928 28.2562 116.235 22.1502 116.235 17.2932C116.235 13.5042 117.113 6.9262 124.627 6.9262C132.078 6.9262 133.146 12.2792 133.146 17.2932C133.146 22.1502 132.367 28.2562 124.598 28.2562ZM90.0994 9.9982C86.5294 9.9982 85.4034 12.7822 85.4034 17.6112C85.4034 22.3062 86.3444 25.1602 90.0994 25.1602C93.9224 25.1602 95.0204 22.4682 95.0204 17.6112C95.0204 12.5972 93.9224 9.9982 90.0994 9.9982ZM90.0704 28.2562C82.3994 28.2562 81.7064 22.1502 81.7064 17.2932C81.7064 13.5042 82.5844 6.9262 90.0994 6.9262C97.5554 6.9262 98.6184 12.2792 98.6184 17.2932C98.6244 22.1502 97.8384 28.2562 90.0704 28.2562Z" fill="#429DCA"/>
<path fill-rule="evenodd" clip-rule="evenodd" d="M170.107 27.413L163.644 7.838C163.517 7.428 163.39 7.18 162.795 7.18H159.399L152.854 27.35C152.698 27.817 152.825 27.978 153.201 27.978H155.65C156.089 27.978 156.343 27.823 156.493 27.32L157.902 22.804H164.343L162.437 19.857H158.78L161.357 10.888H161.483L166.254 27.326C166.41 27.765 166.538 27.984 167.034 27.984H169.795C170.136 27.973 170.199 27.76 170.107 27.413Z" fill="#429DCA"/>
<path fill-rule="evenodd" clip-rule="evenodd" d="M180.781 24.9003H176.548V10.2173H180.279C182.473 10.2173 183.415 11.3793 183.415 12.9783C183.415 14.5143 182.225 15.6753 180.625 15.6753H177.067L178.251 18.6853H180.781C183.04 18.6853 184.016 20.1583 184.016 21.8213C184.01 23.4913 183.323 24.9003 180.781 24.9003ZM184.64 17.0563L184.611 16.9933C186.65 16.0223 187.117 13.8853 187.117 12.6953C187.117 9.3693 184.987 7.1733 180.816 7.1733H173.007V27.3783C173.007 27.7543 173.163 27.9723 173.7 27.9723H181.665C184.894 27.9723 187.718 25.7433 187.718 22.0413C187.712 20.4753 187.147 17.9053 184.64 17.0563Z" fill="#429DCA"/>
<path fill-rule="evenodd" clip-rule="evenodd" d="M79.587 27.3144L75.486 19.0144C78.212 17.9804 79.212 15.5084 79.212 13.2794C79.212 8.9594 76.046 7.1734 72.823 7.1734H65.245V27.3774C65.245 27.7824 65.401 27.9724 65.869 27.9724H68.185C68.624 27.9724 68.78 27.7244 68.78 27.3494V10.2754H72.101C73.915 10.2754 75.544 10.9334 75.544 13.2854C75.544 16.1374 73.574 16.6054 72.038 16.6054H69.3L70.461 19.5804H71.98L75.642 27.4414C75.833 27.8804 76.081 27.9724 76.549 27.9724H79.24C79.587 27.9724 79.743 27.6954 79.587 27.3144Z" fill="#429DCA"/>
<path fill-rule="evenodd" clip-rule="evenodd" d="M55.9053 7.1796H48.7603V27.3776C48.7603 27.7826 48.9513 27.9726 49.3843 27.9726H51.7353C52.1743 27.9726 52.2953 27.7246 52.2953 27.3776V10.2466H55.4893C57.6213 10.2466 59.0303 11.2806 59.0303 13.5036C59.0303 15.4156 58.1233 16.9176 55.6163 16.9176H52.8153L53.9933 19.8926H55.9003C61.2593 19.8926 62.6343 16.2876 62.6343 13.4116C62.6403 9.2466 59.6943 7.1796 55.9053 7.1796Z" fill="#429DCA"/>
<path fill-rule="evenodd" clip-rule="evenodd" d="M191.045 27.332C190.328 27.049 190.328 26.771 190.421 26.361L190.704 25.079C190.831 24.548 191.016 24.548 191.547 24.611C193.17 24.796 195.643 25.051 197.081 25.051C199.737 25.051 201.083 24.08 201.083 22.301C201.083 20.049 200.177 19.488 197.363 18.985C193.673 18.264 190.393 17.392 190.393 13.105C190.393 9.167 193.078 7.012 197.491 7.012C198.681 7.012 201.43 7.104 203.243 7.855C203.931 8.139 203.931 8.416 203.867 8.826L203.556 10.108C203.429 10.61 203.243 10.64 202.649 10.61C201.239 10.426 199.489 10.206 197.647 10.206C194.989 10.206 194.054 11.24 194.054 12.99C194.054 14.96 195.054 15.243 197.774 15.739C201.366 16.462 204.682 17.241 204.682 21.989C204.682 26.708 201.089 28.238 197.086 28.238C195.516 28.238 192.674 27.99 191.045 27.332Z" fill="#429DCA"/>
<mask id="mask1" mask-type="alpha" maskUnits="userSpaceOnUse" x="0" y="-1" width="41" height="47">
<path fill-rule="evenodd" clip-rule="evenodd" d="M0.000244141 -9.91821e-05H40.7782V45.9878H0.000244141V-9.91821e-05Z" fill="white"/>
</mask>
<g mask="url(#mask1)">
<path fill-rule="evenodd" clip-rule="evenodd" d="M4.51124 32.1318L20.3892 40.8478L36.2672 32.1318V13.8618L20.3892 5.1468L4.51124 13.8618V32.1318ZM20.3892 45.9878L0.000244141 34.7998V11.1888L20.3892 -0.000198364L40.7782 11.1948V34.7998L20.3892 45.9878Z" fill="#429DCA"/>
</g>
<path fill-rule="evenodd" clip-rule="evenodd" d="M31.4385 14.3818L9.33948 26.4938V31.6068L31.4385 19.4878V14.3818Z" fill="#429DCA"/>
<path fill-rule="evenodd" clip-rule="evenodd" d="M9.33984 17.2529V22.3579L20.3888 16.2999V11.1989L9.33984 17.2529Z" fill="#85BD41"/>
<path fill-rule="evenodd" clip-rule="evenodd" d="M31.4384 28.7353V23.6303L20.3894 29.6883V34.7893L31.4384 28.7353Z" fill="#343842"/>
</svg>
