<svg width="217" height="49" viewBox="0 0 217 49" fill="none" xmlns="http://www.w3.org/2000/svg">
    <path fill-rule="evenodd" clip-rule="evenodd" d="M21.345 2.505l18.597 10.364v21.854L21.345 45.087 3.218 36.42V12.644l18.127-10.14z" fill="#fff"/>
    <path fill-rule="evenodd" clip-rule="evenodd" d="M119.709 16.621h-5.285v17.851c0 .368-.133.628-.599.628h-2.491c-.465 0-.635-.2-.635-.628v-17.85h-6.464l1.179-3.29h15.541l-1.246 3.29zm95.854-1.089h-.2v.388h.2c.097 0 .211-.025.211-.2 0-.145-.096-.188-.211-.188zm.501 1.095c.019.024.013.055-.017.055h-.212c-.03 0-.055-.012-.066-.042-.079-.165-.152-.328-.236-.49h-.17v.483c0 .024-.011.054-.048.054h-.169c-.037 0-.048-.017-.048-.054v-1.27c0-.036.017-.048.06-.048h.447c.218 0 .43.115.43.405 0 .151-.06.314-.236.387l.265.52zm-.519-1.572a.935.935 0 0 0 0 1.87.934.934 0 0 0 0-1.87zm0 2.098a1.166 1.166 0 0 1-1.179-1.155v-.012c0-.647.526-1.16 1.179-1.16.665 0 1.173.513 1.173 1.16 0 .66-.526 1.167-1.173 1.167z" fill="#429DCA"/>
    <path fill-rule="evenodd" clip-rule="evenodd" d="M147.264 31.89h9.379c.393 0 .592.133.592.556v2.062c0 .393-.163.593-.622.593h-12.396c-.49 0-.654-.2-.654-.593V13.332h3.084c.424 0 .623.2.623.659V31.89h-.006zm-16.792-15.607c-3.737 0-4.916 2.915-4.916 7.969 0 4.916.986 7.904 4.916 7.904 4.003 0 5.146-2.818 5.146-7.904.006-5.248-1.143-7.97-5.146-7.97zm-.03 19.114c-8.03 0-8.756-6.392-8.756-11.477 0-3.967.919-10.854 8.786-10.854 7.8 0 8.919 5.605 8.919 10.854 0 5.085-.816 11.477-8.949 11.477zM94.324 16.283c-3.737 0-4.916 2.915-4.916 7.969 0 4.916.986 7.904 4.916 7.904 4.003 0 5.152-2.818 5.152-7.904 0-5.248-1.149-7.97-5.152-7.97zm-.03 19.114c-8.03 0-8.756-6.392-8.756-11.477 0-3.967.919-10.854 8.786-10.854 7.807 0 8.919 5.605 8.919 10.854.006 5.085-.816 11.477-8.949 11.477z" fill="#429DCA"/>
    <path fill-rule="evenodd" clip-rule="evenodd" d="M178.085 34.514l-6.767-20.493c-.132-.43-.266-.69-.888-.69h-3.556l-6.851 21.117c-.163.489-.03.659.363.659h2.564c.459 0 .725-.163.883-.69l1.475-4.728h6.742l-1.995-3.084h-3.828l2.697-9.391h.133l4.995 17.209c.163.46.296.69.816.69h2.89c.357-.012.424-.237.327-.6z" fill="#429DCA"/>
    <path fill-rule="evenodd" clip-rule="evenodd" d="M189.26 31.883h-4.433v-15.37h3.907c2.297 0 3.283 1.215 3.283 2.89 0 1.608-1.245 2.824-2.921 2.824h-3.725l1.241 3.15h2.648c2.364 0 3.386 1.542 3.386 3.283-.006 1.748-.726 3.223-3.386 3.223zm4.039-8.211l-.03-.066c2.135-1.017 2.624-3.254 2.624-4.5 0-3.483-2.232-5.781-6.597-5.781h-8.175v21.153c0 .392.163.623.725.623h8.339c3.38 0 6.337-2.335 6.337-6.211-.006-1.64-.599-4.33-3.223-5.218z" fill="#429DCA"/>
    <path fill-rule="evenodd" clip-rule="evenodd" d="M83.32 34.411l-4.294-8.689c2.854-1.083 3.9-3.67 3.9-6.005 0-4.523-3.314-6.392-6.688-6.392h-7.933v21.152c0 .423.163.623.653.623h2.424c.46 0 .624-.26.624-.653V16.572h3.476c1.9 0 3.604.69 3.604 3.151 0 2.987-2.062 3.477-3.67 3.477H72.55l1.216 3.114h1.59l3.834 8.23c.2.46.46.556.95.556h2.817c.363 0 .526-.29.363-.689z" fill="#429DCA"/>
    <path fill-rule="evenodd" clip-rule="evenodd" d="M58.527 13.332h-7.48v21.146c0 .422.2.623.653.623h2.461c.46 0 .587-.261.587-.623V16.542h3.343c2.232 0 3.707 1.083 3.707 3.411 0 2.001-.949 3.573-3.573 3.573h-2.933l1.234 3.115h1.995c5.611 0 7.05-3.774 7.05-6.785.006-4.36-3.077-6.524-7.044-6.524z" fill="#429DCA"/>
    <path fill-rule="evenodd" clip-rule="evenodd" d="M200.005 34.429c-.75-.296-.75-.586-.653-1.016l.296-1.342c.133-.556.327-.556.882-.49 1.7.194 4.287.459 5.793.459 2.783 0 4.191-1.015 4.191-2.878 0-2.358-.949-2.944-3.894-3.47-3.864-.756-7.299-1.67-7.299-6.157 0-4.123 2.812-6.378 7.432-6.378 1.245 0 4.124.096 6.023.882.719.296.719.587.653 1.016l-.327 1.343c-.133.526-.326.556-.95.526-1.475-.194-3.307-.424-5.236-.424-2.781 0-3.761 1.082-3.761 2.915 0 2.062 1.046 2.358 3.894 2.878 3.762.756 7.232 1.573 7.232 6.543 0 4.94-3.761 6.542-7.952 6.542-1.644 0-4.619-.26-6.324-.95z" fill="#429DCA"/>
    <mask id="a" maskUnits="userSpaceOnUse" x="0" y="-1" width="43" height="50">
        <path fill-rule="evenodd" clip-rule="evenodd" d="M0 0h42.69v48.145H0V0z" fill="#fff"/>
    </mask>
    <g mask="url(#a)">
        <path fill-rule="evenodd" clip-rule="evenodd" d="M4.723 33.639l16.623 9.124 16.622-9.124V14.513L21.345 5.388 4.724 14.513v19.126zm16.623 14.506L0 36.432v-24.72L21.346 0 42.69 11.719v24.713L21.345 48.145z" fill="#429DCA"/>
    </g>
    <path fill-rule="evenodd" clip-rule="evenodd" d="M32.913 15.057L9.778 27.737v5.35l23.135-12.684v-5.346z" fill="#429DCA"/>
    <path fill-rule="evenodd" clip-rule="evenodd" d="M9.778 18.061v5.346l11.567-6.343v-5.34L9.778 18.062z" fill="#85BD41"/>
    <path fill-rule="evenodd" clip-rule="evenodd" d="M32.913 30.083v-5.346l-11.568 6.344v5.339l11.568-6.337z" fill="#343842"/>
</svg>
