<svg width="208" height="46" viewBox="0 0 208 46" fill="none" xmlns="http://www.w3.org/2000/svg">
    <path fill-rule="evenodd" clip-rule="evenodd" d="M206.698 35.28v-.602l-.26.601h-.15l-.254-.595v.595h-.196v-.94h.254l.277.657.277-.658h.243v.941h-.191zm-1.316-.769v.768h-.197v-.768h-.289v-.173h.775v.173h-.289zm.097 7.827c.41 0 .735.323.735.733s-.325.722-.735.722a.707.707 0 0 1-.721-.722c0-.41.311-.733.721-.733zm-4.516.543c1.121 0 1.813-.983 1.813-2.276 0-1.294-.676-2.183-1.802-2.183s-1.854.912-1.854 2.206.665 2.253 1.843 2.253zm1.831-.04c-.3.6-.965 1.126-1.947 1.126-1.842 0-2.98-1.462-2.98-3.334 0-1.779 1.201-3.29 2.98-3.29 1.11 0 1.71.547 1.918 1.055v-4.06h1.207v9.455h-1.178v-.953zm-6.99-2.837c-.022-.9-.611-1.606-1.72-1.606-1.034 0-1.658.797-1.71 1.606h3.43zm1.243 2c-.353 1.107-1.358 1.985-2.825 1.985-1.686 0-3.165-1.23-3.165-3.36 0-1.977 1.427-3.317 3.003-3.317 1.936 0 3.016 1.334 3.016 3.293 0 .155-.012.312-.024.393h-4.73c.023 1.126.838 1.906 1.895 1.906 1.016 0 1.53-.56 1.761-1.266l1.069.365zm-17.391-3.253a3.355 3.355 0 0 0-.538-.04c-1.034 0-1.727.547-1.727 1.934v3.148h-1.23v-6.285h1.202v1.098c.456-.965 1.241-1.2 1.877-1.2.173 0 .34.022.404.04v1.305h.012zm-15.983 1.253c-.023-.9-.612-1.606-1.721-1.606-1.034 0-1.658.797-1.71 1.606h3.431zm1.242 2c-.352 1.107-1.357 1.985-2.824 1.985-1.687 0-3.165-1.23-3.165-3.36 0-1.977 1.426-3.317 3.003-3.317 1.935 0 3.015 1.334 3.015 3.293 0 .155-.012.312-.023.393h-4.731c.024 1.126.838 1.906 1.895 1.906 1.016 0 1.53-.56 1.761-1.266l1.069.365zm8.664-2c-.023-.9-.612-1.606-1.721-1.606-1.034 0-1.658.797-1.71 1.606h3.431zm1.248 2c-.353 1.107-1.358 1.985-2.825 1.985-1.686 0-3.165-1.23-3.165-3.36 0-1.977 1.426-3.317 3.004-3.317 1.935 0 3.015 1.334 3.015 3.293 0 .155-.012.312-.024.393h-4.73c.023 1.126.837 1.906 1.894 1.906 1.017 0 1.531-.56 1.762-1.266l1.068.365h.001zm-8.531 1.79v-9.462h1.23v9.455h-1.23v.006zm-26.824-3.779h3.188l-1.605-4.152-1.583 4.152zm3.65 1.191h-4.1l-.982 2.587h-1.369l3.685-9.265h1.478l3.685 9.265h-1.386l-1.011-2.587zm-11.315 1.132c.411 0 .734.323.734.733s-.323.722-.734.722a.708.708 0 0 1-.722-.722c0-.41.312-.733.722-.733zm-12.949 1.455h-1.23v-6.285h1.201v.902c.456-.785 1.201-1.086 1.935-1.086 1.501 0 2.246 1.086 2.246 2.483v3.986h-1.229v-3.778c0-.872-.365-1.576-1.462-1.576-.965 0-1.461.768-1.461 1.721v3.633zm-4.269 0h1.213v-6.285h-1.213v6.284zm.601-8.947c.399 0 .711.318.711.71 0 .387-.312.7-.711.7a.699.699 0 0 1-.699-.7.7.7 0 0 1 .699-.71zm-1.646 3.905a3.334 3.334 0 0 0-.537-.04c-1.034 0-1.727.547-1.727 1.934v3.148h-1.23v-6.285h1.201v1.098c.456-.965 1.241-1.2 1.877-1.2.174 0 .341.022.404.04v1.305h.012zM76.497 43.99c-1.462 0-2.351-1.097-2.351-2.523v-3.958h1.23v3.778c0 .861.393 1.618 1.427 1.618.994 0 1.49-.653 1.49-1.606v-3.79h1.219v6.285h-1.167v-.756c-.335.652-1.12.952-1.848.952zm28.718 0c-1.461 0-2.351-1.097-2.351-2.523v-3.958h1.23v3.778c0 .861.393 1.618 1.427 1.618.993 0 1.49-.653 1.49-1.606v-3.79h1.23v6.285h-1.166v-.756c-.347.652-1.132.952-1.86.952zm-5.014-6.48h1.358v1.11h-1.358v3.263c0 .571.237.86.878.86.163 0 .326-.018.486-.052v1.045c-.104.041-.416.121-.838.121-1.07 0-1.75-.652-1.75-1.79v-3.448h-1.201v-1.11h1.305v-1.986l1.12-.416v2.402zm-17.253 1.11v5.174h-1.264v-5.175h-1.167v-1.11h1.167v-1.056c0-1.398.93-2.154 2.062-2.154.415 0 .68.091.733.132v1.098c-.063-.023-.22-.08-.537-.08-.427 0-.994.207-.994 1.067v.993h1.514v1.11h-1.514zm-14.491 5.174h-1.231v-6.285h1.202v.902c.456-.785 1.2-1.086 1.935-1.086 1.502 0 2.247 1.086 2.247 2.483v3.986h-1.23v-3.778c0-.872-.365-1.576-1.462-1.576-.965 0-1.461.768-1.461 1.721v3.633zm-10.951 0V36.58l-3.16 7.214h-1.178L50.03 36.58v7.214h-1.27v-9.265h1.738l3.264 7.538 3.292-7.538h1.71v9.265h-1.26z" fill="#343842"/>
    <path fill-rule="evenodd" clip-rule="evenodd" d="M127.331 42.459c-1.109 0-1.814-.785-1.814-2.01 0-1.213.733-2.01 1.814-2.01 1.057 0 1.791.797 1.791 2.01 0 1.213-.734 2.01-1.791 2.01zm1.75-4.95v.878c-.312-.623-.965-.993-1.935-.993-1.727 0-2.888 1.357-2.888 3.055 0 1.774 1.213 3.044 2.888 3.044.884 0 1.525-.41 1.854-.941l-.017.15v.45c0 1.16-.647 1.774-1.831 1.774-.786 0-1.433-.232-2.056-.613l-.492.994c.746.45 1.629.687 2.582.687 1.04 0 1.849-.254 2.374-.78.479-.48.734-1.207.734-2.177v-5.54h-1.213v.012zm59.827 0h1.357v1.109h-1.357v3.264c0 .57.237.86.878.86.164 0 .326-.017.485-.052v1.045a2.586 2.586 0 0 1-.837.12c-1.069 0-1.75-.651-1.75-1.79v-3.447h-1.202v-1.11h1.306v-1.986l1.12-.416v2.403z" fill="#343842"/>
    <path fill-rule="evenodd" clip-rule="evenodd" d="M184.432 41.102c0 1.369-.809 1.854-1.814 1.854-.629 0-1.022-.446-1.022-.914 0-.559.393-.86.912-.94l1.918-.29v.29h.006zm-1.387-3.79c-1.23 0-2.195.706-2.471 1.727l1.154.29c.168-.566.607-.97 1.347-.97.953 0 1.357.508 1.357 1.12 0 .22-.104.422-.485.468l-1.699.248c-1.086.155-1.906.785-1.906 1.905 0 .994.82 1.884 2.103 1.884 1.126 0 1.75-.602 2.027-1.046v.85h1.19v-4.182c0-1.22-.734-2.294-2.617-2.294zm-94.009 3.79c0 1.369-.809 1.854-1.813 1.854-.63 0-1.023-.446-1.023-.914 0-.559.393-.86.913-.94l1.917-.29v.29h.006zm-1.386-3.79c-1.23 0-2.195.706-2.472 1.727l1.155.29c.167-.566.606-.97 1.346-.97.953 0 1.357.508 1.357 1.12 0 .22-.104.422-.485.468l-1.698.248c-1.086.155-1.906.785-1.906 1.905 0 .994.82 1.884 2.102 1.884 1.127 0 1.75-.602 2.028-1.046v.85h1.19v-4.182c0-1.22-.734-2.294-2.617-2.294zm-23.295 3.79c0 1.369-.808 1.854-1.813 1.854-.63 0-1.023-.446-1.023-.914 0-.559.393-.86.913-.94l1.918-.29v.29h.005zm-1.38-3.79c-1.23 0-2.195.706-2.472 1.727l1.155.29c.168-.566.607-.97 1.346-.97.953 0 1.357.508 1.357 1.12 0 .22-.104.422-.485.468l-1.698.248c-1.086.155-1.906.785-1.906 1.905 0 .994.82 1.884 2.102 1.884 1.127 0 1.75-.602 2.028-1.046v.85h1.19v-4.182c-.006-1.22-.74-2.294-2.617-2.294z" fill="#343842"/>
    <path fill-rule="evenodd" clip-rule="evenodd" d="M155.529 42.852c-1.022 0-1.923-.773-1.923-2.206 0-1.468.912-2.196 1.906-2.196.999 0 1.45.618 1.634 1.203l1.098-.48c-.306-.913-1.144-1.855-2.732-1.855-1.791 0-3.16 1.37-3.16 3.334 0 1.905 1.346 3.343 3.177 3.343 1.56 0 2.432-.963 2.772-1.835l-1.074-.47c-.173.486-.612 1.162-1.698 1.162zm-6.556 0c-1.022 0-1.923-.773-1.923-2.206 0-1.468.913-2.196 1.906-2.196.999 0 1.45.618 1.635 1.203l1.097-.48c-.306-.913-1.143-1.855-2.732-1.855-1.79 0-3.159 1.37-3.159 3.334 0 1.905 1.345 3.343 3.176 3.343 1.56 0 2.432-.963 2.773-1.835l-1.074-.47c-.174.486-.613 1.162-1.699 1.162zm-54.426 0c-1.022 0-1.924-.773-1.924-2.206 0-1.468.913-2.196 1.906-2.196 1 0 1.45.618 1.635 1.203l1.097-.48c-.306-.913-1.143-1.855-2.732-1.855-1.79 0-3.16 1.37-3.16 3.334 0 1.905 1.347 3.343 3.178 3.343 1.559 0 2.43-.963 2.772-1.835l-1.074-.47c-.174.486-.612 1.162-1.698 1.162z" fill="#343842"/>
    <mask id="a" maskUnits="userSpaceOnUse" x="99" y="7" width="109" height="21">
        <path fill-rule="evenodd" clip-rule="evenodd" d="M99.566 7.18H207.01v20.792H99.566V7.18z" fill="#fff"/>
    </mask>
    <g mask="url(#a)">
        <path fill-rule="evenodd" clip-rule="evenodd" d="M114.347 10.321h-5.048v17.051c0 .352-.127.6-.572.6h-2.38c-.445 0-.606-.19-.606-.6v-17.05h-6.175l1.126-3.143h14.844l-1.189 3.142zm91.56-1.039h-.19v.37h.19c.093 0 .202-.023.202-.19 0-.14-.093-.18-.202-.18zm.48 1.045c.017.023.011.053-.018.053h-.202c-.028 0-.052-.012-.064-.04-.075-.158-.144-.313-.225-.469h-.161v.462c0 .023-.012.051-.046.051h-.162c-.036 0-.046-.016-.046-.05V9.12c0-.034.016-.046.057-.046h.427c.208 0 .41.11.41.387 0 .144-.057.3-.224.37l.254.496zm-.498-1.5a.891.891 0 1 0 0 1.781.891.891 0 0 0 0-1.782zm0 2.003a1.115 1.115 0 0 1-1.125-1.104v-.01c0-.619.502-1.11 1.125-1.11.636 0 1.122.491 1.122 1.11a1.11 1.11 0 0 1-1.122 1.114z" fill="#429DCA"/>
    </g>
    <path fill-rule="evenodd" clip-rule="evenodd" d="M140.667 24.906h8.958c.376 0 .566.127.566.531v1.97c0 .375-.155.565-.594.565h-11.841c-.468 0-.624-.19-.624-.565V7.18h2.946c.404 0 .595.191.595.63v17.097h-.006zm-16.04-14.908c-3.569 0-4.696 2.784-4.696 7.613 0 4.695.942 7.55 4.696 7.55 3.824 0 4.915-2.693 4.915-7.55.006-5.014-1.091-7.613-4.915-7.613zm-.029 18.258c-7.67 0-8.363-6.106-8.363-10.963 0-3.789.878-10.367 8.392-10.367 7.451 0 8.519 5.353 8.519 10.367 0 4.857-.779 10.963-8.548 10.963zM90.099 9.998c-3.57 0-4.696 2.784-4.696 7.613 0 4.695.941 7.55 4.696 7.55 3.823 0 4.921-2.693 4.921-7.55 0-5.014-1.098-7.613-4.92-7.613zm-.029 18.258c-7.67 0-8.364-6.106-8.364-10.963 0-3.789.878-10.367 8.393-10.367 7.456 0 8.52 5.353 8.52 10.367.005 4.857-.78 10.963-8.549 10.963z" fill="#429DCA"/>
    <path fill-rule="evenodd" clip-rule="evenodd" d="M170.107 27.413l-6.463-19.575c-.127-.41-.254-.658-.849-.658h-3.396l-6.545 20.17c-.156.467-.029.628.347.628h2.449c.439 0 .693-.155.843-.658l1.409-4.516h6.441l-1.906-2.947h-3.657l2.577-8.969h.126l4.771 16.438c.156.439.284.658.78.658h2.761c.341-.011.404-.224.312-.571z" fill="#429DCA"/>
    <path fill-rule="evenodd" clip-rule="evenodd" d="M180.781 24.9h-4.233V10.217h3.731c2.194 0 3.136 1.162 3.136 2.761 0 1.536-1.19 2.697-2.79 2.697h-3.558l1.184 3.01h2.53c2.259 0 3.235 1.473 3.235 3.136-.006 1.67-.693 3.08-3.235 3.08zm3.859-7.844l-.029-.063c2.039-.97 2.506-3.108 2.506-4.298 0-3.326-2.13-5.522-6.301-5.522h-7.809v20.205c0 .376.156.594.693.594h7.965c3.229 0 6.053-2.229 6.053-5.93-.006-1.567-.571-4.137-3.078-4.986z" fill="#429DCA"/>
    <path fill-rule="evenodd" clip-rule="evenodd" d="M79.587 27.314l-4.101-8.3c2.726-1.034 3.726-3.506 3.726-5.735 0-4.32-3.166-6.106-6.389-6.106h-7.578v20.204c0 .405.156.595.624.595h2.316c.439 0 .595-.248.595-.623V10.275h3.321c1.814 0 3.443.658 3.443 3.01 0 2.852-1.97 3.32-3.506 3.32H69.3l1.161 2.975h1.519l3.662 7.861c.191.44.439.531.907.531h2.691c.347 0 .503-.277.347-.658z" fill="#429DCA"/>
    <path fill-rule="evenodd" clip-rule="evenodd" d="M55.905 7.18H48.76v20.198c0 .405.191.595.624.595h2.351c.44 0 .56-.248.56-.595V10.247h3.194c2.132 0 3.541 1.034 3.541 3.257 0 1.912-.907 3.414-3.414 3.414h-2.8l1.177 2.975H55.9c5.36 0 6.734-3.605 6.734-6.481.006-4.165-2.94-6.232-6.729-6.232z" fill="#429DCA"/>
    <path fill-rule="evenodd" clip-rule="evenodd" d="M191.045 27.332c-.717-.283-.717-.561-.624-.971l.283-1.282c.127-.531.312-.531.843-.468 1.623.185 4.096.44 5.534.44 2.656 0 4.002-.971 4.002-2.75 0-2.252-.906-2.813-3.72-3.316-3.69-.721-6.97-1.593-6.97-5.88 0-3.938 2.685-6.093 7.098-6.093 1.19 0 3.939.092 5.752.843.688.284.688.561.624.971l-.311 1.282c-.127.502-.313.532-.907.502-1.41-.184-3.16-.404-5.002-.404-2.658 0-3.593 1.034-3.593 2.784 0 1.97 1 2.253 3.72 2.749 3.592.723 6.908 1.502 6.908 6.25 0 4.719-3.593 6.249-7.596 6.249-1.57 0-4.412-.248-6.041-.906z" fill="#429DCA"/>
    <mask id="b" maskUnits="userSpaceOnUse" x="0" y="-1" width="41" height="47">
        <path fill-rule="evenodd" clip-rule="evenodd" d="M0 0h40.778v45.988H0V0z" fill="#fff"/>
    </mask>
    <g mask="url(#b)">
        <path fill-rule="evenodd" clip-rule="evenodd" d="M4.511 32.132l15.878 8.716 15.878-8.716v-18.27L20.39 5.147 4.511 13.862v18.27zM20.39 45.988L0 34.8V11.189L20.39-.001l20.388 11.196V34.8L20.39 45.988z" fill="#429DCA"/>
    </g>
    <path fill-rule="evenodd" clip-rule="evenodd" d="M31.439 14.382l-22.1 12.112v5.113l22.1-12.12v-5.105z" fill="#429DCA"/>
    <path fill-rule="evenodd" clip-rule="evenodd" d="M9.34 17.253v5.105L20.389 16.3v-5.101l-11.05 6.054z" fill="#85BD41"/>
    <path fill-rule="evenodd" clip-rule="evenodd" d="M31.438 28.735V23.63L20.39 29.688v5.101l11.05-6.054z" fill="#343842"/>
</svg>
